<mxfile host="app.diagrams.net" modified="2021-12-24T22:24:44.319Z" agent="5.0 (Windows NT 10.0; Win64; x64) AppleWebKit/537.36 (KHTML, like Gecko) Chrome/96.0.4664.110 Safari/537.36" etag="PPtZuqQElV8GNFscH39W" version="15.8.6" type="github">
  <diagram id="8EwbqrAMTeSlSdMQor7P" name="Page-1">
    <mxGraphModel dx="942" dy="652" grid="1" gridSize="10" guides="1" tooltips="1" connect="1" arrows="1" fold="1" page="1" pageScale="1" pageWidth="1169" pageHeight="827" math="0" shadow="0">
      <root>
        <mxCell id="0" />
        <mxCell id="1" parent="0" />
        <mxCell id="omNiWwDPHb2oZwsueF7z-6" style="edgeStyle=orthogonalEdgeStyle;rounded=0;orthogonalLoop=1;jettySize=auto;html=1;exitX=1;exitY=0.5;exitDx=0;exitDy=0;strokeWidth=4;" parent="1" source="omNiWwDPHb2oZwsueF7z-1" target="omNiWwDPHb2oZwsueF7z-2" edge="1">
          <mxGeometry relative="1" as="geometry" />
        </mxCell>
        <mxCell id="omNiWwDPHb2oZwsueF7z-1" value="Alternator&lt;br&gt;Starter" style="rounded=0;whiteSpace=wrap;html=1;" parent="1" vertex="1">
          <mxGeometry y="420" width="120" height="60" as="geometry" />
        </mxCell>
        <mxCell id="NTAZIYRhFCOyUyWQ7bBq-5" style="edgeStyle=orthogonalEdgeStyle;rounded=0;orthogonalLoop=1;jettySize=auto;html=1;exitX=1;exitY=0.25;exitDx=0;exitDy=0;entryX=-0.006;entryY=0.121;entryDx=0;entryDy=0;entryPerimeter=0;strokeWidth=4;" parent="1" source="omNiWwDPHb2oZwsueF7z-2" target="NTAZIYRhFCOyUyWQ7bBq-2" edge="1">
          <mxGeometry relative="1" as="geometry" />
        </mxCell>
        <mxCell id="NTAZIYRhFCOyUyWQ7bBq-8" style="edgeStyle=orthogonalEdgeStyle;rounded=0;orthogonalLoop=1;jettySize=auto;html=1;exitX=1;exitY=0.75;exitDx=0;exitDy=0;entryX=0;entryY=0.25;entryDx=0;entryDy=0;strokeWidth=3;" parent="1" source="omNiWwDPHb2oZwsueF7z-2" target="NTAZIYRhFCOyUyWQ7bBq-7" edge="1">
          <mxGeometry relative="1" as="geometry" />
        </mxCell>
        <mxCell id="omNiWwDPHb2oZwsueF7z-2" value="Lead Battery&lt;br&gt;12V 80Ah" style="rounded=0;whiteSpace=wrap;html=1;" parent="1" vertex="1">
          <mxGeometry x="190" y="420" width="120" height="60" as="geometry" />
        </mxCell>
        <mxCell id="NTAZIYRhFCOyUyWQ7bBq-9" style="edgeStyle=orthogonalEdgeStyle;rounded=0;orthogonalLoop=1;jettySize=auto;html=1;entryX=-0.012;entryY=0.885;entryDx=0;entryDy=0;entryPerimeter=0;strokeWidth=2;" parent="1" source="omNiWwDPHb2oZwsueF7z-3" target="NTAZIYRhFCOyUyWQ7bBq-7" edge="1">
          <mxGeometry relative="1" as="geometry" />
        </mxCell>
        <mxCell id="omNiWwDPHb2oZwsueF7z-3" value="MPTT Controller" style="rounded=0;whiteSpace=wrap;html=1;" parent="1" vertex="1">
          <mxGeometry x="190" y="530" width="120" height="60" as="geometry" />
        </mxCell>
        <mxCell id="NTAZIYRhFCOyUyWQ7bBq-26" style="edgeStyle=orthogonalEdgeStyle;rounded=0;orthogonalLoop=1;jettySize=auto;html=1;entryX=0.5;entryY=1;entryDx=0;entryDy=0;dashed=1;fontSize=13;strokeColor=#FF3333;strokeWidth=1;" parent="1" source="omNiWwDPHb2oZwsueF7z-5" target="omNiWwDPHb2oZwsueF7z-16" edge="1">
          <mxGeometry relative="1" as="geometry">
            <Array as="points">
              <mxPoint x="770" y="390" />
              <mxPoint x="690" y="390" />
            </Array>
          </mxGeometry>
        </mxCell>
        <mxCell id="_xQLzV4sS6t-vt97eF0N-6" style="edgeStyle=orthogonalEdgeStyle;rounded=0;orthogonalLoop=1;jettySize=auto;html=1;entryX=0;entryY=0.5;entryDx=0;entryDy=0;strokeWidth=2;" edge="1" parent="1" source="omNiWwDPHb2oZwsueF7z-5" target="_xQLzV4sS6t-vt97eF0N-5">
          <mxGeometry relative="1" as="geometry" />
        </mxCell>
        <mxCell id="omNiWwDPHb2oZwsueF7z-5" value="Inverter&lt;br&gt;1000W / 2000W" style="rounded=0;whiteSpace=wrap;html=1;" parent="1" vertex="1">
          <mxGeometry x="710" y="420" width="120" height="60" as="geometry" />
        </mxCell>
        <mxCell id="omNiWwDPHb2oZwsueF7z-16" value="Control" style="rounded=0;whiteSpace=wrap;html=1;" parent="1" vertex="1">
          <mxGeometry x="570" y="150" width="240" height="80" as="geometry" />
        </mxCell>
        <mxCell id="omNiWwDPHb2oZwsueF7z-19" value="200A" style="text;html=1;align=center;verticalAlign=middle;resizable=0;points=[];autosize=1;strokeColor=none;fillColor=none;" parent="1" vertex="1">
          <mxGeometry x="420" y="410" width="40" height="20" as="geometry" />
        </mxCell>
        <mxCell id="omNiWwDPHb2oZwsueF7z-22" value="&lt;font style=&quot;font-size: 13px&quot;&gt;Legend:&lt;br&gt;&lt;span style=&quot;text-align: right&quot;&gt;&lt;span style=&quot;white-space: pre&quot;&gt;	&lt;span style=&quot;white-space: pre&quot;&gt;	&lt;/span&gt;&lt;/span&gt;: signals&lt;/span&gt;&lt;br&gt;&lt;/font&gt;&lt;div style=&quot;text-align: right ; font-size: 13px&quot;&gt;&lt;span&gt;&lt;font style=&quot;font-size: 13px&quot;&gt;: 15Amps&lt;/font&gt;&lt;/span&gt;&lt;/div&gt;&lt;div style=&quot;text-align: right ; font-size: 13px&quot;&gt;&lt;span&gt;&lt;font style=&quot;font-size: 13px&quot;&gt;: 40Amps&lt;/font&gt;&lt;/span&gt;&lt;/div&gt;&lt;div style=&quot;text-align: right ; font-size: 13px&quot;&gt;&lt;span&gt;&lt;font style=&quot;font-size: 13px&quot;&gt;&lt;span style=&quot;white-space: pre&quot;&gt;	&lt;/span&gt;&lt;span style=&quot;white-space: pre&quot;&gt;	&lt;/span&gt;: 200Amp&lt;/font&gt;&lt;/span&gt;&lt;/div&gt;" style="whiteSpace=wrap;html=1;align=left;" parent="1" vertex="1">
          <mxGeometry x="40" y="50" width="140" height="110" as="geometry" />
        </mxCell>
        <mxCell id="NTAZIYRhFCOyUyWQ7bBq-4" style="edgeStyle=orthogonalEdgeStyle;rounded=0;orthogonalLoop=1;jettySize=auto;html=1;strokeWidth=4;" parent="1" source="NTAZIYRhFCOyUyWQ7bBq-2" target="omNiWwDPHb2oZwsueF7z-5" edge="1">
          <mxGeometry relative="1" as="geometry" />
        </mxCell>
        <mxCell id="NTAZIYRhFCOyUyWQ7bBq-2" value="" style="shape=image;verticalLabelPosition=bottom;labelBackgroundColor=#ffffff;verticalAlign=top;aspect=fixed;imageAspect=0;image=data:image/png,iVBORw0KGgoAAAANSUhEUgAAAUQAAACbCAMAAAAtKxK6AAAAgVBMVEX///8AAAClpaWJiYmsrKze3t7T09O/v7/7+/u2trbh4eHs7Ozv7+8/Pz/a2trg4OB1dXXJycnt7e2Tk5Oenp719fVWVlbGxsYqKipjY2N7e3tdXV1ISEiDg4O5ublSUlI0NDSgoKBtbW0lJSUNDQ1JSUk4ODgaGhogICCOjo4UFBTdLYo+AAAIyElEQVR4nO2d2WKqMBCGDSKrohQQxV1bW33/BzxkwiIIhHKINiHfFdVU8DfLzCSZjEYSiUQwptPin8GbnoNrEDLSSy26IrR658PwCkLZ5QKhLZoxvNdUU73x2FPdKb0sVzyI6FijgJ2Izu2CMn7GGqv7vIMHEWNsViLqV1TiaLK50zt4iYjOk4QgozC18RUijqskxOwY3OwdsBfR+Eo1m9322mSi6bdt9ooYFhVzEYNVIphn5y9O/U/y4rcQAzVzEZMx2Su/7icqGlX/xBmsRTyAVCvr+R37SFp0zzd8B4xF9ECor+o3l6KMLkURpz2LaIFM27q3iYpOr7d8B/F3IMRDgOO46Dp3evxSW0q3B4POsb/7vYnMZgtGenrZW1/vwsdN6guQmqr3db93YaYYIzu97O3DD9Q+D/rMa283FBC7Rb2m1dXBc2ox+HqVRqQk49Bi7LXFGFrYAU2VVmjV61AmHDD0nmmlIu5NxWA3ZscCy+PTHkHBpfav+LKssOsifb1BtZdCXEp9xZdlBXsRqYa0hkspr/iyrGAvIrWhShHpUBvqvlWpv4wxYccc5LnRHgGCs+ErviyXTLE8B1qpNS5VEbOVEKA991JowJyxPpThGaJlm9c8D5foLdrzmvtxhTXQVBtdOhKVla5zAzusUOOsDQR6Fq96Hi6B8Rmd6guoSI7NVMgqnNqFSxMkK2ILiNtSE/4nHaLsEWloRCf3t+9JHjkRpSq8v2QxjpxfaUGyOPFSMrpDshJHdojtSJd4XvxsFLaUREIUvfPJeELN4mKfy8jzdst79kKD9SMpMj+iSi5cz0+9HKVKQ+oclqREWcYfRZqHvwYM689kpfbSlw25C8QqPC72ttyD2Zls1wWKdNmQuzEtdIhfJxm46UCgbooDy30nZ/i64O6+i0IuFZv+X5IylrIs6vg9lkGcLoTRZ1HIjSorZAfm/ldRx9Xtv7bt2q6pqqY7uN8i0BclH+ZsdtosWRiyNqoQGy5/g+PNijpevd96MpN16adA6+E5Q4F5Lomw0Nt7NNMnCaE6fjB84L+KdiuFyrZ+u40tapWEmGGuqPhQS3XqHoVU5zDvVNeeGYaml38Gdbm9qLjjVVHIg9LoHB5SwR4Gdi0VtnZjq/jYaskW/9m5dRUy0fBcsmumiYwi7EXvjBHufkrjRKUtnoxHFf6OmzRx5o/6t7FOh6KOz7Y4GVMulVZhkrqD68X0vRDoZedw/WiLkwX7q5qmbhAVB+fAVDHxa21x4qTUeicBvL180XP+dab7si1+3se2uFPXH6aQZT7CpNH6fzSvbIsrUBEbbcGFrIplPswK/64x1BDIXrEK7Va0xSkroWCls1yl8oz9GPWidHjQbdYkNRo87o4sh/qkFYRSr3giPgGXhOqQwLA+f8XzcAmISF1gC4t/xioreJ+oNLE81B39++fxvFc4n6UEEalT/6EUsQkpYg/I5twD7QaWE5TSWbHnfG4W4mDULdJg4sjFZ7VAc+ql0IDZtOiTIBgmwzj1wNwAZVYUYmFyhqCeFnEusjK3S+c/99bbTXZIhzZeL6PUEvD9dNeI6XuceyzJoNHoPdNLNPzj7ILQCv8AxhKhCz58AjQ10ouHK46ZQz1ryHNCLO0OS5u+0BYvYQkUEOmI1nhdj0I+ykCrJIppoiP/IiazzrUGzAfqWBH9LARpW3hrZ/IRe4i8GWgWkR3us+NOABFJr3iv6fOCe9cesfDDxI02XV+2xdXeQEcHPCULKSKImDh1n5V10SYadsh0rRXOOQvzyLiK23HcnEd3vMjnhoJIBBHJHEqlUknO9S670c3Cf53QOL10cC5wLKKPjQJ0iC0oEUQcJfN/y1Lw2kqmYTrZ2adCQutb7qDPsfODRbTj19y4bQsiYqoiWubb3Iwwncnq5qsohUwAXi7iBP0QEUeHz/jGI2FEfDj66mt8UtXTON+S0DErQlgQ/6Fxwxsg4h7p+NOFETE/caJM12TJ00LIwsqnFHe4UoKII2J/iiPiyIiqJFx03wu8ydMBxH3ELB23AnAyiYgL3LJFEjE2Z3ZlCaP/iSHaaS028CJmLfX3ZjDgEBENG/9GQokYoy+y7Cb3xf/upXZjz9k31Yg4eiZCZ9W8Jc6P8WBFiiZiTDB3dT2c97Glf0p6iDXRaAKj/YW0agMaMkFAEfvFth59P8vifDZFIpFIJJJmbEfTHO6neN6INs62pVxl+owuBF7ZPbvJbFe/5ElCzJj+f5IM7V6lIeJ+edor8TPRjmfP973zNW/T7342Xkg3w8/ydCuBmQahB5tn4HekO+FLUQ8nyQU49L3drUiGlIr1WUkuEQFOa2dNsvy8clVMcvQA16dHvgKD6FQTsU8yU0qDsRkSJq5NFWTJwYUOSdXQkC9JbxZZMkoqYuNJX2s5QlMwmjpEgi17RQqw9Ymy4eRMafCDBwSibMKTWyUoQFPtpdBw+WhVyfjfPmZoDAG/jrqREWI81PPI/zLykOwekMe19wB7EakNVYpIh9pQ9Val/jLBSWEHrKmmHkQFqVdkOKwOqOZUvxj86+ElGG8NtGdaoUubQgMGUhVTVpRCSHHQqYgpQHdH2VICHac8FLYeEv5vjHO1iJYNHVg23rhTESoi9+nZg8eKYrturydIUPPjUjPs8kF+WnpAZpW2fbatZXODNr7FGFZy80JDMz/cb7rl8KiBeETXurfJKgj+M0XmIlqk2UW9rkkg58BeK+uiQTQUYGh+MnStfvv5ZANyRb/okFP8GicDOeFJxEnPXytZRxeVKqOR7FY+9nqzN/Ek4q7vuFS6Unv30PdZ6YbvoxCzpWURNfTd9y2ybO2XSAldN1SiLO24CG159CSixWKwPNUFGwUYU4CiiDabHFjWoUrCLf+2TUJBRJuZ96A9yfjFvZ+S8yjiB0sPzPbzw8Zjs16omMODiFPWXqwx0dWTr+4d0c5rR2hiYeZYQ9+G63c/E3dkLSzIs8y8+5m4IzuRwLDSqw7p3iQSiYRv/gHAWGLpIFfOaAAAAABJRU5ErkJggg==;" parent="1" vertex="1">
          <mxGeometry x="570" y="430" width="83.61" height="40" as="geometry" />
        </mxCell>
        <mxCell id="NTAZIYRhFCOyUyWQ7bBq-10" style="edgeStyle=orthogonalEdgeStyle;rounded=0;orthogonalLoop=1;jettySize=auto;html=1;entryX=0;entryY=0.75;entryDx=0;entryDy=0;strokeWidth=3;" parent="1" source="NTAZIYRhFCOyUyWQ7bBq-7" target="NTAZIYRhFCOyUyWQ7bBq-2" edge="1">
          <mxGeometry relative="1" as="geometry" />
        </mxCell>
        <mxCell id="NTAZIYRhFCOyUyWQ7bBq-25" style="edgeStyle=orthogonalEdgeStyle;rounded=0;orthogonalLoop=1;jettySize=auto;html=1;entryX=0.25;entryY=1;entryDx=0;entryDy=0;fontSize=13;strokeWidth=1;dashed=1;fillColor=#e51400;strokeColor=#FF3333;" parent="1" source="NTAZIYRhFCOyUyWQ7bBq-7" target="omNiWwDPHb2oZwsueF7z-16" edge="1">
          <mxGeometry relative="1" as="geometry">
            <Array as="points">
              <mxPoint x="447" y="360" />
              <mxPoint x="630" y="360" />
            </Array>
          </mxGeometry>
        </mxCell>
        <mxCell id="NTAZIYRhFCOyUyWQ7bBq-7" value="" style="shape=image;verticalLabelPosition=bottom;labelBackgroundColor=#ffffff;verticalAlign=top;aspect=fixed;imageAspect=0;image=data:image/png,iVBORw0KGgoAAAANSUhEUgAAAUQAAACbCAMAAAAtKxK6AAAAgVBMVEX///8AAAClpaWJiYmsrKze3t7T09O/v7/7+/u2trbh4eHs7Ozv7+8/Pz/a2trg4OB1dXXJycnt7e2Tk5Oenp719fVWVlbGxsYqKipjY2N7e3tdXV1ISEiDg4O5ublSUlI0NDSgoKBtbW0lJSUNDQ1JSUk4ODgaGhogICCOjo4UFBTdLYo+AAAIyElEQVR4nO2d2WKqMBCGDSKrohQQxV1bW33/BzxkwiIIhHKINiHfFdVU8DfLzCSZjEYSiUQwptPin8GbnoNrEDLSSy26IrR658PwCkLZ5QKhLZoxvNdUU73x2FPdKb0sVzyI6FijgJ2Izu2CMn7GGqv7vIMHEWNsViLqV1TiaLK50zt4iYjOk4QgozC18RUijqskxOwY3OwdsBfR+Eo1m9322mSi6bdt9ooYFhVzEYNVIphn5y9O/U/y4rcQAzVzEZMx2Su/7icqGlX/xBmsRTyAVCvr+R37SFp0zzd8B4xF9ECor+o3l6KMLkURpz2LaIFM27q3iYpOr7d8B/F3IMRDgOO46Dp3evxSW0q3B4POsb/7vYnMZgtGenrZW1/vwsdN6guQmqr3db93YaYYIzu97O3DD9Q+D/rMa283FBC7Rb2m1dXBc2ox+HqVRqQk49Bi7LXFGFrYAU2VVmjV61AmHDD0nmmlIu5NxWA3ZscCy+PTHkHBpfav+LKssOsifb1BtZdCXEp9xZdlBXsRqYa0hkspr/iyrGAvIrWhShHpUBvqvlWpv4wxYccc5LnRHgGCs+ErviyXTLE8B1qpNS5VEbOVEKA991JowJyxPpThGaJlm9c8D5foLdrzmvtxhTXQVBtdOhKVla5zAzusUOOsDQR6Fq96Hi6B8Rmd6guoSI7NVMgqnNqFSxMkK2ILiNtSE/4nHaLsEWloRCf3t+9JHjkRpSq8v2QxjpxfaUGyOPFSMrpDshJHdojtSJd4XvxsFLaUREIUvfPJeELN4mKfy8jzdst79kKD9SMpMj+iSi5cz0+9HKVKQ+oclqREWcYfRZqHvwYM689kpfbSlw25C8QqPC72ttyD2Zls1wWKdNmQuzEtdIhfJxm46UCgbooDy30nZ/i64O6+i0IuFZv+X5IylrIs6vg9lkGcLoTRZ1HIjSorZAfm/ldRx9Xtv7bt2q6pqqY7uN8i0BclH+ZsdtosWRiyNqoQGy5/g+PNijpevd96MpN16adA6+E5Q4F5Lomw0Nt7NNMnCaE6fjB84L+KdiuFyrZ+u40tapWEmGGuqPhQS3XqHoVU5zDvVNeeGYaml38Gdbm9qLjjVVHIg9LoHB5SwR4Gdi0VtnZjq/jYaskW/9m5dRUy0fBcsmumiYwi7EXvjBHufkrjRKUtnoxHFf6OmzRx5o/6t7FOh6KOz7Y4GVMulVZhkrqD68X0vRDoZedw/WiLkwX7q5qmbhAVB+fAVDHxa21x4qTUeicBvL180XP+dab7si1+3se2uFPXH6aQZT7CpNH6fzSvbIsrUBEbbcGFrIplPswK/64x1BDIXrEK7Va0xSkroWCls1yl8oz9GPWidHjQbdYkNRo87o4sh/qkFYRSr3giPgGXhOqQwLA+f8XzcAmISF1gC4t/xioreJ+oNLE81B39++fxvFc4n6UEEalT/6EUsQkpYg/I5twD7QaWE5TSWbHnfG4W4mDULdJg4sjFZ7VAc+ql0IDZtOiTIBgmwzj1wNwAZVYUYmFyhqCeFnEusjK3S+c/99bbTXZIhzZeL6PUEvD9dNeI6XuceyzJoNHoPdNLNPzj7ILQCv8AxhKhCz58AjQ10ouHK46ZQz1ryHNCLO0OS5u+0BYvYQkUEOmI1nhdj0I+ykCrJIppoiP/IiazzrUGzAfqWBH9LARpW3hrZ/IRe4i8GWgWkR3us+NOABFJr3iv6fOCe9cesfDDxI02XV+2xdXeQEcHPCULKSKImDh1n5V10SYadsh0rRXOOQvzyLiK23HcnEd3vMjnhoJIBBHJHEqlUknO9S670c3Cf53QOL10cC5wLKKPjQJ0iC0oEUQcJfN/y1Lw2kqmYTrZ2adCQutb7qDPsfODRbTj19y4bQsiYqoiWubb3Iwwncnq5qsohUwAXi7iBP0QEUeHz/jGI2FEfDj66mt8UtXTON+S0DErQlgQ/6Fxwxsg4h7p+NOFETE/caJM12TJ00LIwsqnFHe4UoKII2J/iiPiyIiqJFx03wu8ydMBxH3ELB23AnAyiYgL3LJFEjE2Z3ZlCaP/iSHaaS028CJmLfX3ZjDgEBENG/9GQokYoy+y7Cb3xf/upXZjz9k31Yg4eiZCZ9W8Jc6P8WBFiiZiTDB3dT2c97Glf0p6iDXRaAKj/YW0agMaMkFAEfvFth59P8vifDZFIpFIJJJmbEfTHO6neN6INs62pVxl+owuBF7ZPbvJbFe/5ElCzJj+f5IM7V6lIeJ+edor8TPRjmfP973zNW/T7342Xkg3w8/ydCuBmQahB5tn4HekO+FLUQ8nyQU49L3drUiGlIr1WUkuEQFOa2dNsvy8clVMcvQA16dHvgKD6FQTsU8yU0qDsRkSJq5NFWTJwYUOSdXQkC9JbxZZMkoqYuNJX2s5QlMwmjpEgi17RQqw9Ymy4eRMafCDBwSibMKTWyUoQFPtpdBw+WhVyfjfPmZoDAG/jrqREWI81PPI/zLykOwekMe19wB7EakNVYpIh9pQ9Val/jLBSWEHrKmmHkQFqVdkOKwOqOZUvxj86+ElGG8NtGdaoUubQgMGUhVTVpRCSHHQqYgpQHdH2VICHac8FLYeEv5vjHO1iJYNHVg23rhTESoi9+nZg8eKYrturydIUPPjUjPs8kF+WnpAZpW2fbatZXODNr7FGFZy80JDMz/cb7rl8KiBeETXurfJKgj+M0XmIlqk2UW9rkkg58BeK+uiQTQUYGh+MnStfvv5ZANyRb/okFP8GicDOeFJxEnPXytZRxeVKqOR7FY+9nqzN/Ek4q7vuFS6Unv30PdZ6YbvoxCzpWURNfTd9y2ybO2XSAldN1SiLO24CG159CSixWKwPNUFGwUYU4CiiDabHFjWoUrCLf+2TUJBRJuZ96A9yfjFvZ+S8yjiB0sPzPbzw8Zjs16omMODiFPWXqwx0dWTr+4d0c5rR2hiYeZYQ9+G63c/E3dkLSzIs8y8+5m4IzuRwLDSqw7p3iQSiYRv/gHAWGLpIFfOaAAAAABJRU5ErkJggg==;" parent="1" vertex="1">
          <mxGeometry x="405" y="524" width="83.61" height="40" as="geometry" />
        </mxCell>
        <mxCell id="NTAZIYRhFCOyUyWQ7bBq-11" value="15A" style="text;html=1;align=center;verticalAlign=middle;resizable=0;points=[];autosize=1;strokeColor=none;fillColor=none;" parent="1" vertex="1">
          <mxGeometry x="340" y="570" width="40" height="20" as="geometry" />
        </mxCell>
        <mxCell id="NTAZIYRhFCOyUyWQ7bBq-13" style="edgeStyle=orthogonalEdgeStyle;rounded=0;orthogonalLoop=1;jettySize=auto;html=1;entryX=0;entryY=0.5;entryDx=0;entryDy=0;strokeWidth=3;" parent="1" source="NTAZIYRhFCOyUyWQ7bBq-12" target="omNiWwDPHb2oZwsueF7z-3" edge="1">
          <mxGeometry relative="1" as="geometry" />
        </mxCell>
        <mxCell id="NTAZIYRhFCOyUyWQ7bBq-12" value="LFP Battery&lt;br&gt;12V 30Ah" style="rounded=0;whiteSpace=wrap;html=1;" parent="1" vertex="1">
          <mxGeometry y="530" width="120" height="60" as="geometry" />
        </mxCell>
        <mxCell id="NTAZIYRhFCOyUyWQ7bBq-15" value="30A" style="text;html=1;align=center;verticalAlign=middle;resizable=0;points=[];autosize=1;strokeColor=none;fillColor=none;" parent="1" vertex="1">
          <mxGeometry x="130" y="570" width="40" height="20" as="geometry" />
        </mxCell>
        <mxCell id="NTAZIYRhFCOyUyWQ7bBq-16" value="30A" style="text;html=1;align=center;verticalAlign=middle;resizable=0;points=[];autosize=1;strokeColor=none;fillColor=none;" parent="1" vertex="1">
          <mxGeometry x="360" y="490" width="40" height="20" as="geometry" />
        </mxCell>
        <mxCell id="NTAZIYRhFCOyUyWQ7bBq-19" style="edgeStyle=orthogonalEdgeStyle;rounded=0;orthogonalLoop=1;jettySize=auto;html=1;strokeWidth=4;" parent="1" edge="1">
          <mxGeometry relative="1" as="geometry">
            <mxPoint x="70" y="140" as="sourcePoint" />
            <mxPoint x="90" y="140" as="targetPoint" />
            <Array as="points">
              <mxPoint x="50" y="140" />
            </Array>
          </mxGeometry>
        </mxCell>
        <mxCell id="NTAZIYRhFCOyUyWQ7bBq-20" style="edgeStyle=orthogonalEdgeStyle;rounded=0;orthogonalLoop=1;jettySize=auto;html=1;strokeWidth=3;" parent="1" edge="1">
          <mxGeometry relative="1" as="geometry">
            <mxPoint x="70" y="120" as="sourcePoint" />
            <mxPoint x="90" y="120" as="targetPoint" />
            <Array as="points">
              <mxPoint x="50" y="120" />
            </Array>
          </mxGeometry>
        </mxCell>
        <mxCell id="NTAZIYRhFCOyUyWQ7bBq-21" style="edgeStyle=orthogonalEdgeStyle;rounded=0;orthogonalLoop=1;jettySize=auto;html=1;strokeWidth=2;" parent="1" edge="1">
          <mxGeometry relative="1" as="geometry">
            <mxPoint x="70" y="104.70999999999998" as="sourcePoint" />
            <mxPoint x="90" y="104.70999999999998" as="targetPoint" />
            <Array as="points">
              <mxPoint x="50" y="104.70999999999998" />
            </Array>
          </mxGeometry>
        </mxCell>
        <mxCell id="NTAZIYRhFCOyUyWQ7bBq-22" style="edgeStyle=orthogonalEdgeStyle;rounded=0;orthogonalLoop=1;jettySize=auto;html=1;strokeWidth=1;dashed=1;strokeColor=#FF3333;" parent="1" edge="1">
          <mxGeometry relative="1" as="geometry">
            <mxPoint x="70" y="89.70999999999998" as="sourcePoint" />
            <mxPoint x="90" y="89.70999999999998" as="targetPoint" />
            <Array as="points">
              <mxPoint x="50" y="89.70999999999998" />
            </Array>
          </mxGeometry>
        </mxCell>
        <mxCell id="NTAZIYRhFCOyUyWQ7bBq-34" style="edgeStyle=orthogonalEdgeStyle;rounded=0;orthogonalLoop=1;jettySize=auto;html=1;exitX=0;exitY=0.5;exitDx=0;exitDy=0;fontSize=13;strokeColor=#000000;strokeWidth=2;startArrow=classic;startFill=1;endArrow=none;endFill=0;" parent="1" source="NTAZIYRhFCOyUyWQ7bBq-27" edge="1">
          <mxGeometry relative="1" as="geometry">
            <mxPoint x="1129.9999999999998" y="450.11764705882354" as="targetPoint" />
          </mxGeometry>
        </mxCell>
        <mxCell id="NTAZIYRhFCOyUyWQ7bBq-27" value="Fridge Motor" style="rounded=0;whiteSpace=wrap;html=1;fontSize=13;align=center;" parent="1" vertex="1">
          <mxGeometry x="1170" y="420" width="120" height="60" as="geometry" />
        </mxCell>
        <mxCell id="NTAZIYRhFCOyUyWQ7bBq-28" value="230VAC Outlet" style="rounded=0;whiteSpace=wrap;html=1;fontSize=13;align=center;" parent="1" vertex="1">
          <mxGeometry x="1170" y="524" width="120" height="60" as="geometry" />
        </mxCell>
        <mxCell id="NTAZIYRhFCOyUyWQ7bBq-33" style="edgeStyle=orthogonalEdgeStyle;rounded=0;orthogonalLoop=1;jettySize=auto;html=1;entryX=0.75;entryY=1;entryDx=0;entryDy=0;fontSize=13;strokeColor=#FF3333;strokeWidth=1;dashed=1;" parent="1" source="NTAZIYRhFCOyUyWQ7bBq-30" target="omNiWwDPHb2oZwsueF7z-16" edge="1">
          <mxGeometry relative="1" as="geometry">
            <Array as="points">
              <mxPoint x="1070" y="360" />
              <mxPoint x="750" y="360" />
            </Array>
          </mxGeometry>
        </mxCell>
        <mxCell id="NTAZIYRhFCOyUyWQ7bBq-30" value="" style="shape=image;verticalLabelPosition=bottom;labelBackgroundColor=#ffffff;verticalAlign=top;aspect=fixed;imageAspect=0;image=data:image/png,iVBORw0KGgoAAAANSUhEUgAAAZAAAAB+CAMAAAA9WLe4AAAAeFBMVEX///8AAABAQEDKysri4uLs7Oze3t6Ojo7X19f39/fw8PBPT0+4uLgqKiptbW3T09O9vb14eHiVlZU5OTnBwcFLS0uenp6AgIBvb29hYWEjIyM0NDSFhYWlpaXHx8cdHR0VFRUMDAxXV1dlZWWwsLBFRUU1NTUREREz2zr2AAAFtklEQVR4nO2d64KqIBSFs9SytLLsOlbT7fT+b3gaARVSsKQYx/X9LEZoA5vNYuN0OgAAAAAAAAAAAAAAAAAAAAAAAAAAQIo9NN0CwDGyVo7pNgBKfzV0rTunnumWgITQsgIrIbiYbgu4c7Fy9LGYmGec7xHrPDDdHjAZcV1ynZpuEHBWXJdYM3gu03jLA9clY3gu40RXrku68FzGcddclxzhuYwznPGLCWIu81zmXJfMfdMNAhN+Z2L1oXOZZtjnu2Q8Md0i4AueCzqXcQZnwXMh5jLNcHbkYy54LuP4XXiuX8aA3y0i5jKPuFvcwHMZR/BcOFs0j+i5Ytt0i1rPcPbNdQmyIswjeq6dZ7pFrUf0XCt4LtN4wm5xEZluEZguuC7ZLiGqmMYNec+1xkGWabwlH3PhCN48ez6fC8lD5rGFfC4kDxnH231xXYIjePP0Nvw0gRxsHEc4gt9AVDHOhfdcW8jBxhGThyAHG8cRDrIgB+vDse2XbubWkIOH9yoRDhTg+WHAYtj4eeFQSNi2wiqeK4pZFlgQ+pD080Qn3p4vJC2KoopKDhYXH+sE/ZgxDaxHrs/nNES8qHKQyMGTa0GVAYSxH5xRgW2SWfK8F3EFUSUsFlU8cXYwRlhOOtMS29w5vqBReTv+kly3QFQZHMvrbP0kmZXb5s5LEtVeWJBEOdiXVjnT8auaS87FfPUj13Ec14+32Ye7l55qx7yRuRBhl32+jf2kyqif2/HHen5ZM8nUqNDNfTzJMuBflXEFUSXLDs7mB5fEnTuMbPEcSdePk7iYDlJ7uoV/WYGJcK8hTupw0wkpLlBZcNHadcSROSbmzL5rPL9ADmablVVB+dSZtTXWYkOyWHzaSUxXGZ/3XAFb74vXph6bsHWqbC4R/fn7ku+X9Pt6+q3ouRKWJYX39Pt2btq/5MbpdKg+Na5ZjyPk2FnWurQsHQT/albZSOhoXEiK3HRMkR98Tim5SUou5LP2L7NRW5s6tb6G2vI5djKHZJMiGw1VNgxP5T1+IPL4QU+FO7rhnEuLUZmrfWo83YPI5Spfl89KoKNfvtcckELt24uQfUYgLzQk1tGUu3CpNPjJPKoVbDeSbqXffdVpHbKMXBWlVpVKvZfxvPtprtXGfl8ZiT3BolKIQOfR9eMmmWfxPX/x4pOoTjzIdv1Yuy8SSJUqAXlizBjZuCs7s3s/quWaLv21+yKBPEu1XLvlrX0zo7QNv7dD6E6kdl8kkGepZBHbmDF+Q4eoxHUa99buiwTyLNUJy2+YIV114TehkiiItqQIjqtCklvKtTPCXtbet9JN2zDpfZzJsZJ1iL54rt0XCUT3lWsDbAzcTNhEz898EWId1ckD2aXpELM6LIbeKkqddI6BBkGFbvm2mfpzTdorjRDk6xbV2FRT9+9BNSP5zjCu0muVobaWp5XQfWELry3e1A6ESlnaTlRPFfqXOMlvXVU2CJqBINs400QHbTc6aRAtk8boSb6mVatRsJyT8hQPKmJ866uT5pyUhzPqRv1h6Ble6XkRdfkvZi8WwjJZSp0WPecP9VXZIOgKUXpcSi8pqMLUp6CHhmU7TZYl1NKXQ7DxOir6csgujWi9Msgyr4JCkzMJSeOcbBZsQG4fg0yWtKX76C7N7n7UGAcsybuleXKdbJW4O21+xNrpaxq6JX/6MunL5Te80jzM0lLal+CQkmb3WtY63Y570+ytGQftxvGyCz2nafr0Xu7SaCsjLAZ3+DAP4368zt0Osb7eMFi9/I3GYH2vMuT+JUPL3zzgFF34ZBSu9vWRHf8ErZ4fCWGpcd52c6b8Hl07NyACvUOhbbovX9VR4xYfyR3wVg6C/9gl3TenO+8fu+SAt6BlTMJbzjTb+I2zg+HmL5datxCzQ8D2l+Fmc14to4+tq060XJ03m3Dptzy0AgAAAAAAAAAAAAAAAAAAAAAAAAB4lv98Fz05JTdBeAAAAABJRU5ErkJggg==;" parent="1" vertex="1">
          <mxGeometry x="1030" y="430" width="95.24" height="30" as="geometry" />
        </mxCell>
        <mxCell id="_xQLzV4sS6t-vt97eF0N-2" style="edgeStyle=orthogonalEdgeStyle;rounded=0;orthogonalLoop=1;jettySize=auto;html=1;entryX=0.5;entryY=1;entryDx=0;entryDy=0;strokeWidth=2;" edge="1" parent="1" source="_xQLzV4sS6t-vt97eF0N-1" target="NTAZIYRhFCOyUyWQ7bBq-12">
          <mxGeometry relative="1" as="geometry">
            <Array as="points">
              <mxPoint x="1230" y="710" />
              <mxPoint x="60" y="710" />
            </Array>
          </mxGeometry>
        </mxCell>
        <mxCell id="_xQLzV4sS6t-vt97eF0N-1" value="Smart Charger" style="rounded=0;whiteSpace=wrap;html=1;fontSize=13;align=center;" vertex="1" parent="1">
          <mxGeometry x="1170" y="620" width="120" height="60" as="geometry" />
        </mxCell>
        <mxCell id="_xQLzV4sS6t-vt97eF0N-3" value="4A" style="text;html=1;align=center;verticalAlign=middle;resizable=0;points=[];autosize=1;strokeColor=none;fillColor=none;" vertex="1" parent="1">
          <mxGeometry x="555" y="680" width="30" height="20" as="geometry" />
        </mxCell>
        <mxCell id="_xQLzV4sS6t-vt97eF0N-7" style="edgeStyle=orthogonalEdgeStyle;rounded=0;orthogonalLoop=1;jettySize=auto;html=1;entryX=-0.042;entryY=0.643;entryDx=0;entryDy=0;entryPerimeter=0;strokeWidth=2;" edge="1" parent="1" source="_xQLzV4sS6t-vt97eF0N-5" target="NTAZIYRhFCOyUyWQ7bBq-30">
          <mxGeometry relative="1" as="geometry" />
        </mxCell>
        <mxCell id="_xQLzV4sS6t-vt97eF0N-8" style="edgeStyle=orthogonalEdgeStyle;rounded=0;orthogonalLoop=1;jettySize=auto;html=1;entryX=0;entryY=0.5;entryDx=0;entryDy=0;strokeWidth=2;" edge="1" parent="1" source="_xQLzV4sS6t-vt97eF0N-5" target="NTAZIYRhFCOyUyWQ7bBq-28">
          <mxGeometry relative="1" as="geometry">
            <Array as="points">
              <mxPoint x="990" y="450" />
              <mxPoint x="990" y="554" />
            </Array>
          </mxGeometry>
        </mxCell>
        <mxCell id="_xQLzV4sS6t-vt97eF0N-16" style="edgeStyle=orthogonalEdgeStyle;rounded=0;orthogonalLoop=1;jettySize=auto;html=1;entryX=0;entryY=0.5;entryDx=0;entryDy=0;strokeWidth=2;" edge="1" parent="1" source="_xQLzV4sS6t-vt97eF0N-5" target="_xQLzV4sS6t-vt97eF0N-14">
          <mxGeometry relative="1" as="geometry" />
        </mxCell>
        <mxCell id="_xQLzV4sS6t-vt97eF0N-5" value="Outlet" style="rhombus;whiteSpace=wrap;html=1;" vertex="1" parent="1">
          <mxGeometry x="870" y="410" width="80" height="80" as="geometry" />
        </mxCell>
        <mxCell id="_xQLzV4sS6t-vt97eF0N-12" style="edgeStyle=orthogonalEdgeStyle;rounded=0;orthogonalLoop=1;jettySize=auto;html=1;entryX=0.5;entryY=0;entryDx=0;entryDy=0;strokeWidth=2;" edge="1" parent="1" source="_xQLzV4sS6t-vt97eF0N-10" target="_xQLzV4sS6t-vt97eF0N-5">
          <mxGeometry relative="1" as="geometry" />
        </mxCell>
        <mxCell id="_xQLzV4sS6t-vt97eF0N-10" value="" style="ellipse;whiteSpace=wrap;html=1;aspect=fixed;fillColor=#FF3333;" vertex="1" parent="1">
          <mxGeometry x="900" y="320" width="20" height="20" as="geometry" />
        </mxCell>
        <mxCell id="_xQLzV4sS6t-vt97eF0N-11" value="External Power Source" style="text;html=1;align=center;verticalAlign=middle;resizable=0;points=[];autosize=1;strokeColor=none;fillColor=none;" vertex="1" parent="1">
          <mxGeometry x="840" y="300" width="140" height="20" as="geometry" />
        </mxCell>
        <mxCell id="_xQLzV4sS6t-vt97eF0N-17" style="edgeStyle=orthogonalEdgeStyle;rounded=0;orthogonalLoop=1;jettySize=auto;html=1;exitX=1;exitY=0.5;exitDx=0;exitDy=0;strokeWidth=2;" edge="1" parent="1" source="_xQLzV4sS6t-vt97eF0N-14" target="_xQLzV4sS6t-vt97eF0N-1">
          <mxGeometry relative="1" as="geometry" />
        </mxCell>
        <mxCell id="_xQLzV4sS6t-vt97eF0N-19" style="edgeStyle=orthogonalEdgeStyle;rounded=0;orthogonalLoop=1;jettySize=auto;html=1;entryX=1;entryY=0.5;entryDx=0;entryDy=0;strokeWidth=1;strokeColor=#FF3333;dashed=1;" edge="1" parent="1" source="_xQLzV4sS6t-vt97eF0N-14" target="omNiWwDPHb2oZwsueF7z-16">
          <mxGeometry relative="1" as="geometry">
            <Array as="points">
              <mxPoint x="1110" y="190" />
            </Array>
          </mxGeometry>
        </mxCell>
        <mxCell id="_xQLzV4sS6t-vt97eF0N-14" value="" style="shape=image;verticalLabelPosition=bottom;labelBackgroundColor=#ffffff;verticalAlign=top;aspect=fixed;imageAspect=0;image=data:image/png,iVBORw0KGgoAAAANSUhEUgAAAZAAAAB+CAMAAAA9WLe4AAAAeFBMVEX///8AAABAQEDKysri4uLs7Oze3t6Ojo7X19f39/fw8PBPT0+4uLgqKiptbW3T09O9vb14eHiVlZU5OTnBwcFLS0uenp6AgIBvb29hYWEjIyM0NDSFhYWlpaXHx8cdHR0VFRUMDAxXV1dlZWWwsLBFRUU1NTUREREz2zr2AAAFtklEQVR4nO2d64KqIBSFs9SytLLsOlbT7fT+b3gaARVSsKQYx/X9LEZoA5vNYuN0OgAAAAAAAAAAAAAAAAAAAAAAAAAAQIo9NN0CwDGyVo7pNgBKfzV0rTunnumWgITQsgIrIbiYbgu4c7Fy9LGYmGec7xHrPDDdHjAZcV1ynZpuEHBWXJdYM3gu03jLA9clY3gu40RXrku68FzGcddclxzhuYwznPGLCWIu81zmXJfMfdMNAhN+Z2L1oXOZZtjnu2Q8Md0i4AueCzqXcQZnwXMh5jLNcHbkYy54LuP4XXiuX8aA3y0i5jKPuFvcwHMZR/BcOFs0j+i5Ytt0i1rPcPbNdQmyIswjeq6dZ7pFrUf0XCt4LtN4wm5xEZluEZguuC7ZLiGqmMYNec+1xkGWabwlH3PhCN48ez6fC8lD5rGFfC4kDxnH231xXYIjePP0Nvw0gRxsHEc4gt9AVDHOhfdcW8jBxhGThyAHG8cRDrIgB+vDse2XbubWkIOH9yoRDhTg+WHAYtj4eeFQSNi2wiqeK4pZFlgQ+pD080Qn3p4vJC2KoopKDhYXH+sE/ZgxDaxHrs/nNES8qHKQyMGTa0GVAYSxH5xRgW2SWfK8F3EFUSUsFlU8cXYwRlhOOtMS29w5vqBReTv+kly3QFQZHMvrbP0kmZXb5s5LEtVeWJBEOdiXVjnT8auaS87FfPUj13Ec14+32Ye7l55qx7yRuRBhl32+jf2kyqif2/HHen5ZM8nUqNDNfTzJMuBflXEFUSXLDs7mB5fEnTuMbPEcSdePk7iYDlJ7uoV/WYGJcK8hTupw0wkpLlBZcNHadcSROSbmzL5rPL9ADmablVVB+dSZtTXWYkOyWHzaSUxXGZ/3XAFb74vXph6bsHWqbC4R/fn7ku+X9Pt6+q3ouRKWJYX39Pt2btq/5MbpdKg+Na5ZjyPk2FnWurQsHQT/albZSOhoXEiK3HRMkR98Tim5SUou5LP2L7NRW5s6tb6G2vI5djKHZJMiGw1VNgxP5T1+IPL4QU+FO7rhnEuLUZmrfWo83YPI5Spfl89KoKNfvtcckELt24uQfUYgLzQk1tGUu3CpNPjJPKoVbDeSbqXffdVpHbKMXBWlVpVKvZfxvPtprtXGfl8ZiT3BolKIQOfR9eMmmWfxPX/x4pOoTjzIdv1Yuy8SSJUqAXlizBjZuCs7s3s/quWaLv21+yKBPEu1XLvlrX0zo7QNv7dD6E6kdl8kkGepZBHbmDF+Q4eoxHUa99buiwTyLNUJy2+YIV114TehkiiItqQIjqtCklvKtTPCXtbet9JN2zDpfZzJsZJ1iL54rt0XCUT3lWsDbAzcTNhEz898EWId1ckD2aXpELM6LIbeKkqddI6BBkGFbvm2mfpzTdorjRDk6xbV2FRT9+9BNSP5zjCu0muVobaWp5XQfWELry3e1A6ESlnaTlRPFfqXOMlvXVU2CJqBINs400QHbTc6aRAtk8boSb6mVatRsJyT8hQPKmJ866uT5pyUhzPqRv1h6Ble6XkRdfkvZi8WwjJZSp0WPecP9VXZIOgKUXpcSi8pqMLUp6CHhmU7TZYl1NKXQ7DxOir6csgujWi9Msgyr4JCkzMJSeOcbBZsQG4fg0yWtKX76C7N7n7UGAcsybuleXKdbJW4O21+xNrpaxq6JX/6MunL5Te80jzM0lLal+CQkmb3WtY63Y570+ytGQftxvGyCz2nafr0Xu7SaCsjLAZ3+DAP4368zt0Osb7eMFi9/I3GYH2vMuT+JUPL3zzgFF34ZBSu9vWRHf8ErZ4fCWGpcd52c6b8Hl07NyACvUOhbbovX9VR4xYfyR3wVg6C/9gl3TenO+8fu+SAt6BlTMJbzjTb+I2zg+HmL5datxCzQ8D2l+Fmc14to4+tq060XJ03m3Dptzy0AgAAAAAAAAAAAAAAAAAAAAAAAAB4lv98Fz05JTdBeAAAAABJRU5ErkJggg==;" vertex="1" parent="1">
          <mxGeometry x="1030" y="635" width="95.24" height="30" as="geometry" />
        </mxCell>
        <mxCell id="_xQLzV4sS6t-vt97eF0N-18" value="Charging Opion:&lt;br&gt;1. LiFePo External&lt;br&gt;&lt;div&gt;&lt;span&gt;2. LiFePo From Alternator&lt;/span&gt;&lt;/div&gt;&lt;div&gt;&lt;span&gt;3. Lead External (Emergency)&lt;/span&gt;&lt;/div&gt;&lt;div&gt;&lt;span&gt;4. Lead From LiFePo (Emergency)&lt;/span&gt;&lt;/div&gt;" style="text;html=1;align=left;verticalAlign=middle;resizable=0;points=[];autosize=1;strokeColor=default;fillColor=none;" vertex="1" parent="1">
          <mxGeometry x="1070" y="730" width="200" height="80" as="geometry" />
        </mxCell>
      </root>
    </mxGraphModel>
  </diagram>
</mxfile>
